<mxfile host="drawio-plugin" modified="2023-11-07T14:45:25.472Z" agent="5.0 (Windows NT 6.2; Win64; x64) AppleWebKit/537.36 (KHTML, like Gecko) Chrome/98.0.4758.102 Safari/537.36" etag="IG59Z6awfoaMEnU_19Cx" version="20.5.3" type="embed"><diagram id="oKhUMVUiZkrxgYmPrfdD" name="Страница 1"><mxGraphModel dx="1800" dy="2822" grid="1" gridSize="10" guides="1" tooltips="1" connect="1" arrows="1" fold="1" page="1" pageScale="1" pageWidth="827" pageHeight="1169" math="0" shadow="0"><root><mxCell id="0"/><mxCell id="1" parent="0"/><mxCell id="zHwneukNKotvRWGbDp1N-14" value="&lt;p style=&quot;margin:0px;margin-top:4px;text-align:center;&quot;&gt;&lt;b&gt;Item&lt;br&gt;&lt;/b&gt;&lt;/p&gt;&lt;hr size=&quot;1&quot;&gt;&lt;div style=&quot;height:2px;&quot;&gt;&lt;/div&gt;" style="verticalAlign=top;align=left;overflow=fill;fontSize=12;fontFamily=Helvetica;html=1;" parent="1" vertex="1"><mxGeometry x="110" y="112" width="200" height="150" as="geometry"/></mxCell><mxCell id="zHwneukNKotvRWGbDp1N-15" value="- Title_: String&#10;" style="text;strokeColor=none;fillColor=none;align=left;verticalAlign=top;spacingLeft=4;spacingRight=4;overflow=hidden;rotatable=0;points=[[0,0.5],[1,0.5]];portConstraint=eastwest;" parent="1" vertex="1"><mxGeometry x="110" y="130" width="100" height="26" as="geometry"/></mxCell><mxCell id="zHwneukNKotvRWGbDp1N-17" value="- Weight_: Integer" style="text;strokeColor=none;fillColor=none;align=left;verticalAlign=top;spacingLeft=4;spacingRight=4;overflow=hidden;rotatable=0;points=[[0,0.5],[1,0.5]];portConstraint=eastwest;" parent="1" vertex="1"><mxGeometry x="110" y="156" width="120" height="26" as="geometry"/></mxCell><mxCell id="zHwneukNKotvRWGbDp1N-18" value="" style="line;strokeWidth=1;fillColor=none;align=left;verticalAlign=middle;spacingTop=-1;spacingLeft=3;spacingRight=3;rotatable=0;labelPosition=right;points=[];portConstraint=eastwest;strokeColor=inherit;" parent="1" vertex="1"><mxGeometry x="110" y="182" width="200" height="8" as="geometry"/></mxCell><mxCell id="zHwneukNKotvRWGbDp1N-19" value="+ GetTitle(): String&#10;" style="text;strokeColor=none;fillColor=none;align=left;verticalAlign=top;spacingLeft=4;spacingRight=4;overflow=hidden;rotatable=0;points=[[0,0.5],[1,0.5]];portConstraint=eastwest;" parent="1" vertex="1"><mxGeometry x="110" y="190" width="120" height="26" as="geometry"/></mxCell><mxCell id="zHwneukNKotvRWGbDp1N-20" value="&lt;&lt;virtual &gt;&gt; + GetType(): ItemType" style="text;strokeColor=none;fillColor=none;align=left;verticalAlign=top;spacingLeft=4;spacingRight=4;overflow=hidden;rotatable=0;points=[[0,0.5],[1,0.5]];portConstraint=eastwest;" parent="1" vertex="1"><mxGeometry x="110" y="216" width="200" height="26" as="geometry"/></mxCell><mxCell id="zHwneukNKotvRWGbDp1N-24" style="edgeStyle=orthogonalEdgeStyle;rounded=0;orthogonalLoop=1;jettySize=auto;html=1;entryX=0.5;entryY=1;entryDx=0;entryDy=0;strokeColor=none;" parent="1" source="zHwneukNKotvRWGbDp1N-21" target="zHwneukNKotvRWGbDp1N-14" edge="1"><mxGeometry relative="1" as="geometry"/></mxCell><mxCell id="zHwneukNKotvRWGbDp1N-29" style="edgeStyle=orthogonalEdgeStyle;rounded=0;orthogonalLoop=1;jettySize=auto;html=1;" parent="1" source="zHwneukNKotvRWGbDp1N-21" target="zHwneukNKotvRWGbDp1N-26" edge="1"><mxGeometry relative="1" as="geometry"><Array as="points"><mxPoint x="-100" y="300"/><mxPoint x="220" y="300"/></Array></mxGeometry></mxCell><mxCell id="zHwneukNKotvRWGbDp1N-21" value="&lt;p style=&quot;margin:0px;margin-top:4px;text-align:center;&quot;&gt;&lt;b&gt;Weapon&lt;/b&gt;&lt;/p&gt;&lt;hr size=&quot;1&quot;&gt;&lt;p style=&quot;margin:0px;margin-left:4px;&quot;&gt;&amp;lt;&amp;lt;get/set&amp;gt;&amp;gt; - Damage_: Integer&lt;/p&gt;&lt;p style=&quot;margin:0px;margin-left:4px;&quot;&gt;&amp;lt;&amp;lt;get/set&amp;gt;&amp;gt; - ShotTime_:Integer&lt;/p&gt;&lt;p style=&quot;margin:0px;margin-left:4px;&quot;&gt;&amp;lt;&amp;lt;get/set&amp;gt;&amp;gt; - ReloadTime_:Integer&lt;/p&gt;&lt;p style=&quot;margin:0px;margin-left:4px;&quot;&gt;&amp;lt;&amp;lt;get/set&amp;gt;&amp;gt; - MagazineSize_: Integer&lt;/p&gt;&lt;p style=&quot;margin:0px;margin-left:4px;&quot;&gt;&amp;lt;&amp;lt;get/set&amp;gt;&amp;gt; - MagazineCapacity_:Integer&lt;/p&gt;&lt;p style=&quot;margin:0px;margin-left:4px;&quot;&gt;&amp;lt;&amp;lt;get/set&amp;gt;&amp;gt; - RoundType_:Integer&lt;br&gt;&lt;/p&gt;&lt;hr size=&quot;1&quot;&gt;&lt;p style=&quot;margin:0px;margin-left:4px;&quot;&gt;&amp;lt;&amp;lt;override&amp;gt; + GetType(): ItemType&lt;/p&gt;&lt;p style=&quot;margin:0px;margin-left:4px;&quot;&gt;+ reload(container: RoundContainer)&lt;/p&gt;&lt;p style=&quot;margin:0px;margin-left:4px;&quot;&gt;+ shot()&lt;/p&gt;&lt;p style=&quot;margin:0px;margin-left:4px;&quot;&gt;&lt;br&gt;&lt;/p&gt;&lt;p style=&quot;margin:0px;margin-left:4px;&quot;&gt;&lt;br&gt;&lt;/p&gt;" style="verticalAlign=top;align=left;overflow=fill;fontSize=12;fontFamily=Helvetica;html=1;" parent="1" vertex="1"><mxGeometry x="-230" y="92" width="260" height="190" as="geometry"/></mxCell><mxCell id="zHwneukNKotvRWGbDp1N-26" value="&lt;p style=&quot;margin:0px;margin-top:4px;text-align:center;&quot;&gt;&lt;b&gt;RoundContainer&lt;/b&gt;&lt;/p&gt;&lt;hr size=&quot;1&quot;&gt;&lt;p style=&quot;margin:0px;margin-left:4px;&quot;&gt;&amp;lt;&amp;lt;get/set&amp;gt;&amp;gt; - RoundType_: Integer&lt;/p&gt;&lt;p style=&quot;margin:0px;margin-left:4px;&quot;&gt;&amp;lt;&amp;lt;get/set&amp;gt;&amp;gt; - Capacity_: Integer&lt;/p&gt;&lt;p style=&quot;margin:0px;margin-left:4px;&quot;&gt;&amp;lt;&amp;lt;get/set&amp;gt;&amp;gt; - Size_: Integer&lt;br&gt;&lt;/p&gt;&lt;hr size=&quot;1&quot;&gt;&lt;p style=&quot;margin:0px;margin-left:4px;&quot;&gt;&amp;lt;&amp;lt;override&amp;gt; + GetType(): ItemType&lt;/p&gt;&lt;p style=&quot;margin:0px;margin-left:4px;&quot;&gt;+ extract(amount: Integer)&lt;/p&gt;&lt;p style=&quot;margin:0px;margin-left:4px;&quot;&gt;&lt;br&gt;&lt;/p&gt;&lt;p style=&quot;margin:0px;margin-left:4px;&quot;&gt;&lt;br&gt;&lt;/p&gt;&lt;p style=&quot;margin:0px;margin-left:4px;&quot;&gt;&lt;br&gt;&lt;/p&gt;&lt;p style=&quot;margin:0px;margin-left:4px;&quot;&gt;&lt;br&gt;&lt;/p&gt;&lt;p style=&quot;margin:0px;margin-left:4px;&quot;&gt;&lt;/p&gt;" style="verticalAlign=top;align=left;overflow=fill;fontSize=12;fontFamily=Helvetica;html=1;" parent="1" vertex="1"><mxGeometry x="200" y="435" width="290" height="140" as="geometry"/></mxCell><mxCell id="zHwneukNKotvRWGbDp1N-30" value="&lt;p style=&quot;margin:0px;margin-top:4px;text-align:center;&quot;&gt;&lt;b&gt;FirstAidKit&lt;/b&gt;&lt;/p&gt;&lt;hr size=&quot;1&quot;&gt;&lt;p style=&quot;margin:0px;margin-left:4px;&quot;&gt;&amp;lt;&amp;lt;get/set&amp;gt;&amp;gt;&amp;nbsp; - UsageTime_: Integer&lt;/p&gt;&lt;p style=&quot;margin:0px;margin-left:4px;&quot;&gt;&amp;lt;&amp;lt;get/set&amp;gt;&amp;gt;&amp;nbsp; - HeatPointBoost_: Integer_&lt;br&gt;&lt;/p&gt;&lt;hr size=&quot;1&quot;&gt;&lt;p style=&quot;margin:0px;margin-left:4px;&quot;&gt;&amp;lt;&amp;lt;override&amp;gt; + GetType(): ItemType&lt;/p&gt;&lt;p style=&quot;margin:0px;margin-left:4px;&quot;&gt;&lt;br&gt;&lt;/p&gt;&lt;p style=&quot;margin:0px;margin-left:4px;&quot;&gt;&lt;br&gt;&lt;/p&gt;&lt;p style=&quot;margin:0px;margin-left:4px;&quot;&gt;&lt;/p&gt;" style="verticalAlign=top;align=left;overflow=fill;fontSize=12;fontFamily=Helvetica;html=1;" parent="1" vertex="1"><mxGeometry x="530" y="435" width="260" height="135" as="geometry"/></mxCell><mxCell id="zHwneukNKotvRWGbDp1N-33" value="" style="endArrow=block;endSize=16;endFill=0;html=1;rounded=0;exitX=1;exitY=0.5;exitDx=0;exitDy=0;" parent="1" source="zHwneukNKotvRWGbDp1N-21" target="zHwneukNKotvRWGbDp1N-14" edge="1"><mxGeometry width="160" relative="1" as="geometry"><mxPoint x="110" y="520" as="sourcePoint"/><mxPoint x="270" y="520" as="targetPoint"/></mxGeometry></mxCell><mxCell id="zHwneukNKotvRWGbDp1N-35" value="" style="endArrow=block;endSize=16;endFill=0;html=1;rounded=0;exitX=0.5;exitY=0;exitDx=0;exitDy=0;entryX=0.5;entryY=1;entryDx=0;entryDy=0;" parent="1" source="zHwneukNKotvRWGbDp1N-26" target="zHwneukNKotvRWGbDp1N-14" edge="1"><mxGeometry width="160" relative="1" as="geometry"><mxPoint x="360" y="400" as="sourcePoint"/><mxPoint x="520" y="400" as="targetPoint"/></mxGeometry></mxCell><mxCell id="zHwneukNKotvRWGbDp1N-36" value="" style="endArrow=block;endSize=16;endFill=0;html=1;rounded=0;exitX=0.5;exitY=0;exitDx=0;exitDy=0;entryX=0.871;entryY=1.008;entryDx=0;entryDy=0;entryPerimeter=0;" parent="1" source="zHwneukNKotvRWGbDp1N-30" target="zHwneukNKotvRWGbDp1N-14" edge="1"><mxGeometry width="160" relative="1" as="geometry"><mxPoint x="590" y="350" as="sourcePoint"/><mxPoint x="750" y="350" as="targetPoint"/></mxGeometry></mxCell><mxCell id="zHwneukNKotvRWGbDp1N-37" value="&lt;p style=&quot;margin:0px;margin-top:4px;text-align:center;&quot;&gt;&lt;b&gt;Inventory&lt;/b&gt;&lt;br&gt;&lt;/p&gt;&lt;hr size=&quot;1&quot;&gt;&lt;p style=&quot;margin:0px;margin-left:4px;&quot;&gt;- curWeight_: Integer&lt;/p&gt;&lt;p style=&quot;margin:0px;margin-left:4px;&quot;&gt;- Elements_: Vector&amp;lt;Item&amp;gt;&lt;br&gt;&lt;/p&gt;&lt;hr size=&quot;1&quot;&gt;&lt;p style=&quot;margin:0px;margin-left:4px;&quot;&gt;+ find(title: String): InventoryIterator&lt;/p&gt;&lt;p style=&quot;margin:0px;margin-left:4px;&quot;&gt;+ replace(pos:: InventoryIterator, new_item: Item): InventoryIterator&lt;/p&gt;&lt;p style=&quot;margin:0px;margin-left:4px;&quot;&gt;+ erase(pos: InventoryIterator): InventoryIterator&lt;/p&gt;&lt;p style=&quot;margin:0px;margin-left:4px;&quot;&gt;+ getSize(): Integer&lt;/p&gt;&lt;p style=&quot;margin:0px;margin-left:4px;&quot;&gt;+ getCurWeight(): Integer&lt;/p&gt;&lt;p style=&quot;margin:0px;margin-left:4px;&quot;&gt;+ push_back(new_item: Item)&lt;/p&gt;&lt;p style=&quot;margin:0px;margin-left:4px;&quot;&gt;+ begin(): InventoryIterator&lt;/p&gt;&lt;p style=&quot;margin:0px;margin-left:4px;&quot;&gt;+ end(): InventoryIterator&lt;/p&gt;" style="verticalAlign=top;align=left;overflow=fill;fontSize=12;fontFamily=Helvetica;html=1;" parent="1" vertex="1"><mxGeometry x="490" y="101" width="400" height="204" as="geometry"/></mxCell><mxCell id="zHwneukNKotvRWGbDp1N-38" value="" style="endArrow=diamondThin;endFill=0;endSize=24;html=1;rounded=0;exitX=1;exitY=0.5;exitDx=0;exitDy=0;entryX=0;entryY=0.5;entryDx=0;entryDy=0;" parent="1" source="zHwneukNKotvRWGbDp1N-14" target="zHwneukNKotvRWGbDp1N-37" edge="1"><mxGeometry width="160" relative="1" as="geometry"><mxPoint x="330" y="250" as="sourcePoint"/><mxPoint x="510" y="187" as="targetPoint"/></mxGeometry></mxCell><mxCell id="zHwneukNKotvRWGbDp1N-39" value="&lt;p style=&quot;margin:0px;margin-top:4px;text-align:center;&quot;&gt;&lt;b&gt;Entity&lt;/b&gt;&lt;/p&gt;&lt;hr size=&quot;1&quot;&gt;&lt;p style=&quot;margin:0px;margin-left:4px;&quot;&gt;- i: Integer&lt;/p&gt;&lt;p style=&quot;margin:0px;margin-left:4px;&quot;&gt;- j: Integer&lt;/p&gt;&lt;p style=&quot;margin:0px;margin-left:4px;&quot;&gt;&amp;lt;&amp;lt;get/set&amp;gt;&amp;gt; - Name_: String&lt;/p&gt;&lt;p style=&quot;margin:0px;margin-left:4px;&quot;&gt;&amp;lt;&amp;lt;get/set&amp;gt;&amp;gt; - maxHeatPoint_: Integer&lt;/p&gt;&lt;p style=&quot;margin:0px;margin-left:4px;&quot;&gt;&amp;lt;&amp;lt;get/set&amp;gt;&amp;gt; - curHeatPoint_: Integer&lt;/p&gt;&lt;p style=&quot;margin:0px;margin-left:4px;&quot;&gt;&amp;lt;&amp;lt;get/set&amp;gt;&amp;gt; - curTime_: Integer&lt;/p&gt;&lt;p style=&quot;margin:0px;margin-left:4px;&quot;&gt;&amp;lt;&amp;lt;get/set&amp;gt;&amp;gt; - AvaliableTIme_:Integer&lt;/p&gt;&lt;p style=&quot;margin:0px;margin-left:4px;&quot;&gt;&amp;lt;&amp;lt;get/set&amp;gt;&amp;gt; - StepTime_: Integer&lt;/p&gt;&lt;p style=&quot;margin:0px;margin-left:4px;&quot;&gt;&amp;lt;&amp;lt;get/set&amp;gt;&amp;gt; - VisibilityRadius_: Integer&lt;br&gt;&lt;/p&gt;&lt;hr size=&quot;1&quot;&gt;&lt;p style=&quot;margin:0px;margin-left:4px;&quot;&gt;&amp;lt;&amp;lt;virtual&amp;gt;&amp;gt; + getType(): EntityType&lt;br&gt;&lt;/p&gt;&lt;p style=&quot;margin:0px;margin-left:4px;&quot;&gt;&amp;lt;&amp;lt;virtual&amp;gt;&amp;gt; + move(new_x: Integer, new_y: Integer)&lt;br&gt;&lt;/p&gt;&lt;p style=&quot;margin:0px;margin-left:4px;&quot;&gt;&amp;lt;&amp;lt;virtual&amp;gt;&amp;gt; + die(): Inventory&lt;/p&gt;&lt;p style=&quot;margin:0px;margin-left:4px;&quot;&gt;&lt;/p&gt;&lt;p style=&quot;margin:0px;margin-left:4px;&quot;&gt;&lt;/p&gt;" style="verticalAlign=top;align=left;overflow=fill;fontSize=12;fontFamily=Helvetica;html=1;" parent="1" vertex="1"><mxGeometry x="570" y="-584" width="320" height="260" as="geometry"/></mxCell><mxCell id="zHwneukNKotvRWGbDp1N-41" value="&lt;p style=&quot;margin:0px;margin-top:4px;text-align:center;&quot;&gt;&lt;b&gt;Operative&lt;/b&gt;&lt;/p&gt;&lt;hr size=&quot;1&quot;&gt;&lt;p style=&quot;margin:0px;margin-left:4px;&quot;&gt;&amp;lt;&amp;lt;get/set&amp;gt;&amp;gt; - ReloadTime_: Integer&lt;/p&gt;&lt;p style=&quot;margin:0px;margin-left:4px;&quot;&gt;&amp;lt;&amp;lt;get/set&amp;gt;&amp;gt; - maxWeight_: Integer&lt;/p&gt;&lt;p style=&quot;margin:0px;margin-left:4px;&quot;&gt;&amp;lt;&amp;lt;get/set&amp;gt;&amp;gt; - Accuracy_: Integer&lt;/p&gt;&lt;p style=&quot;margin:0px;margin-left:4px;&quot;&gt;- Inventory_: Inventory&lt;/p&gt;&lt;p style=&quot;margin:0px;margin-left:4px;&quot;&gt;&amp;lt;&amp;lt;get/set&amp;gt;&amp;gt; - ActiveWeapon_:Weapon&lt;br&gt;&lt;/p&gt;&lt;hr size=&quot;1&quot;&gt;&lt;p style=&quot;margin:0px;margin-left:4px;&quot;&gt;+ change_weapon(index: Integer)&lt;/p&gt;&lt;p style=&quot;margin:0px;margin-left:4px;&quot;&gt;+ take_item(inventory: Inventory, int index)&lt;/p&gt;&lt;p style=&quot;margin:0px;margin-left:4px;&quot;&gt;+ throw_item(int index:Item&lt;/p&gt;&lt;p style=&quot;margin:0px;margin-left:4px;&quot;&gt;+ reload(container: RoundContainer)&lt;/p&gt;&lt;p style=&quot;margin:0px;margin-left:4px;&quot;&gt;+ shot(enemy: Entity)&lt;/p&gt;&lt;p style=&quot;margin:0px;margin-left:4px;&quot;&gt;&amp;lt;&amp;lt;override&amp;gt; + move(new_x: Integer, new_y: Integer)&lt;/p&gt;&lt;div&gt;&lt;p style=&quot;margin:0px;margin-left:4px;&quot;&gt;&amp;lt;&amp;lt;override&amp;gt; + die(): Inventory&lt;/p&gt;&lt;p style=&quot;margin:0px;margin-left:4px;&quot;&gt;&amp;lt;&amp;lt;override&amp;gt; +  getType(): EntityType&lt;/p&gt;&lt;p style=&quot;margin:0px;margin-left:4px;&quot;&gt;&lt;/p&gt;&lt;/div&gt;&lt;p style=&quot;margin:0px;margin-left:4px;&quot;&gt;&lt;br&gt;&lt;/p&gt;" style="verticalAlign=top;align=left;overflow=fill;fontSize=12;fontFamily=Helvetica;html=1;" parent="1" vertex="1"><mxGeometry x="270" y="-250" width="380" height="250" as="geometry"/></mxCell><mxCell id="zHwneukNKotvRWGbDp1N-44" value="" style="endArrow=block;endSize=16;endFill=0;html=1;rounded=0;exitX=0.518;exitY=-0.009;exitDx=0;exitDy=0;exitPerimeter=0;" parent="1" source="zHwneukNKotvRWGbDp1N-41" target="zHwneukNKotvRWGbDp1N-39" edge="1"><mxGeometry width="160" relative="1" as="geometry"><mxPoint x="640" y="-270" as="sourcePoint"/><mxPoint x="800" y="-270" as="targetPoint"/></mxGeometry></mxCell><mxCell id="zHwneukNKotvRWGbDp1N-47" value="" style="endArrow=diamondThin;endFill=0;endSize=24;html=1;rounded=0;exitX=0.5;exitY=0;exitDx=0;exitDy=0;" parent="1" source="zHwneukNKotvRWGbDp1N-21" target="zHwneukNKotvRWGbDp1N-41" edge="1"><mxGeometry width="160" relative="1" as="geometry"><mxPoint x="-10" y="50" as="sourcePoint"/><mxPoint x="150" y="50" as="targetPoint"/></mxGeometry></mxCell><mxCell id="zHwneukNKotvRWGbDp1N-48" value="" style="endArrow=diamondThin;endFill=0;endSize=24;html=1;rounded=0;exitX=0.564;exitY=0.006;exitDx=0;exitDy=0;exitPerimeter=0;entryX=0.75;entryY=1;entryDx=0;entryDy=0;" parent="1" source="zHwneukNKotvRWGbDp1N-37" target="zHwneukNKotvRWGbDp1N-41" edge="1"><mxGeometry width="160" relative="1" as="geometry"><mxPoint x="300" y="50" as="sourcePoint"/><mxPoint x="460" y="50" as="targetPoint"/></mxGeometry></mxCell><mxCell id="2" value="&lt;p style=&quot;margin:0px;margin-top:4px;text-align:center;&quot;&gt;&lt;b&gt;IntelligentCreature&lt;/b&gt;&lt;br&gt;&lt;/p&gt;&lt;hr size=&quot;1&quot;&gt;&lt;p style=&quot;margin:0px;margin-left:4px;&quot;&gt;-&amp;nbsp; Accuracy_: Integer&lt;/p&gt;&lt;p style=&quot;margin:0px;margin-left:4px;&quot;&gt;- ActiveWeapon_: Weapon&lt;/p&gt;&lt;hr size=&quot;1&quot;&gt;&lt;p style=&quot;margin:0px;margin-left:4px;&quot;&gt;+ take_item(inventory: Inventory, index: Integer)&lt;/p&gt;&lt;p style=&quot;margin:0px;margin-left:4px;&quot;&gt;+ trhow_item(index: Integer): Item&lt;/p&gt;&lt;p style=&quot;margin:0px;margin-left:4px;&quot;&gt;+ shot(enemy: Entity)&lt;/p&gt;&lt;p style=&quot;margin: 0px 0px 0px 4px;&quot;&gt;&amp;lt;&amp;lt;override&amp;gt; + move(new_x: Integer, new_y: Integer)&lt;/p&gt;&lt;div&gt;&lt;p style=&quot;margin: 0px 0px 0px 4px;&quot;&gt;&amp;lt;&amp;lt;override&amp;gt; + die(): Inventory&lt;/p&gt;&lt;p style=&quot;margin: 0px 0px 0px 4px;&quot;&gt;&amp;lt;&amp;lt;override&amp;gt; + getType(): EntityType&lt;/p&gt;&lt;/div&gt;&lt;p style=&quot;margin:0px;margin-left:4px;&quot;&gt;&lt;br&gt;&lt;/p&gt;" style="verticalAlign=top;align=left;overflow=fill;fontSize=12;fontFamily=Helvetica;html=1;" parent="1" vertex="1"><mxGeometry x="-110" y="-240" width="280" height="180" as="geometry"/></mxCell><mxCell id="8" value="" style="endArrow=block;endSize=16;endFill=0;html=1;rounded=0;exitX=0.5;exitY=0;exitDx=0;exitDy=0;" parent="1" source="2" target="zHwneukNKotvRWGbDp1N-39" edge="1"><mxGeometry x="-0.0017" y="3" width="160" relative="1" as="geometry"><mxPoint x="320" y="-360" as="sourcePoint"/><mxPoint x="480" y="-360" as="targetPoint"/><Array as="points"><mxPoint x="310" y="-320"/></Array><mxPoint as="offset"/></mxGeometry></mxCell><mxCell id="9" value="" style="endArrow=diamondThin;endFill=0;endSize=24;html=1;rounded=0;entryX=0.5;entryY=1;entryDx=0;entryDy=0;" parent="1" target="2" edge="1"><mxGeometry width="160" relative="1" as="geometry"><mxPoint x="-100" y="90" as="sourcePoint"/><mxPoint x="270" y="-46.58181818181811" as="targetPoint"/></mxGeometry></mxCell><mxCell id="10" value="&lt;p style=&quot;margin:0px;margin-top:4px;text-align:center;&quot;&gt;&lt;b&gt;WildCreature&lt;/b&gt;&lt;br&gt;&lt;/p&gt;&lt;hr size=&quot;1&quot;&gt;&lt;p style=&quot;margin:0px;margin-left:4px;&quot;&gt;+ Damage_: Integer&lt;/p&gt;&lt;p style=&quot;margin:0px;margin-left:4px;&quot;&gt;+ Accuracy: Integer&lt;/p&gt;&lt;hr size=&quot;1&quot;&gt;&lt;p style=&quot;margin: 0px 0px 0px 4px;&quot;&gt;&amp;lt;&amp;lt;override&amp;gt; + move(new_x: Integer, new_y: Integer)&lt;/p&gt;&lt;div&gt;&lt;p style=&quot;margin: 0px 0px 0px 4px;&quot;&gt;&amp;lt;&amp;lt;override&amp;gt; + die(): Inventory&lt;/p&gt;&lt;p style=&quot;margin: 0px 0px 0px 4px;&quot;&gt;&amp;lt;&amp;lt;override&amp;gt; + getType(): EntityType&lt;/p&gt;&lt;p style=&quot;margin: 0px 0px 0px 4px;&quot;&gt;+ shot(enemy: Entity)&lt;br&gt;&lt;/p&gt;&lt;/div&gt;" style="verticalAlign=top;align=left;overflow=fill;fontSize=12;fontFamily=Helvetica;html=1;" parent="1" vertex="1"><mxGeometry x="690" y="-250" width="320" height="150" as="geometry"/></mxCell><mxCell id="13" value="" style="endArrow=block;endSize=16;endFill=0;html=1;rounded=0;entryX=0.75;entryY=1;entryDx=0;entryDy=0;" parent="1" source="10" target="zHwneukNKotvRWGbDp1N-39" edge="1"><mxGeometry width="160" relative="1" as="geometry"><mxPoint x="860" y="-250" as="sourcePoint"/><mxPoint x="953.1600000000001" y="-324.24170485068726" as="targetPoint"/></mxGeometry></mxCell><mxCell id="14" value="&lt;p style=&quot;margin:0px;margin-top:4px;text-align:center;&quot;&gt;&lt;b&gt;Forager&lt;/b&gt;&lt;br&gt;&lt;/p&gt;&lt;hr size=&quot;1&quot;&gt;&lt;p style=&quot;margin:0px;margin-left:4px;&quot;&gt;+ Inventory_: Inventory&lt;/p&gt;&lt;hr size=&quot;1&quot;&gt;&lt;p style=&quot;margin: 0px 0px 0px 4px;&quot;&gt;&amp;lt;&amp;lt;override&amp;gt; + move(new_x: Integer, new_y: Integer)&lt;/p&gt;&lt;div&gt;&lt;p style=&quot;margin: 0px 0px 0px 4px;&quot;&gt;&amp;lt;&amp;lt;override&amp;gt; + die(): Inventory&lt;/p&gt;&lt;p style=&quot;margin: 0px 0px 0px 4px;&quot;&gt;&amp;lt;&amp;lt;override&amp;gt; + getType(): EntityType&lt;/p&gt;&lt;p style=&quot;margin: 0px 0px 0px 4px;&quot;&gt;+ take_item(inventory: Inventory, int index)&lt;/p&gt;&lt;p style=&quot;margin: 0px 0px 0px 4px;&quot;&gt;+ throw_item(int index:Item&lt;/p&gt;&lt;/div&gt;" style="verticalAlign=top;align=left;overflow=fill;fontSize=12;fontFamily=Helvetica;html=1;" parent="1" vertex="1"><mxGeometry x="1070" y="-250" width="290" height="150" as="geometry"/></mxCell><mxCell id="15" value="" style="endArrow=diamondThin;endFill=0;endSize=24;html=1;rounded=0;exitX=0.75;exitY=0;exitDx=0;exitDy=0;" parent="1" source="zHwneukNKotvRWGbDp1N-37" target="14" edge="1"><mxGeometry width="160" relative="1" as="geometry"><mxPoint x="720" y="117" as="sourcePoint"/><mxPoint x="575" y="10" as="targetPoint"/></mxGeometry></mxCell><mxCell id="16" value="" style="endArrow=block;endSize=16;endFill=0;html=1;rounded=0;entryX=1;entryY=0.75;entryDx=0;entryDy=0;exitX=0.5;exitY=0;exitDx=0;exitDy=0;" parent="1" source="14" target="zHwneukNKotvRWGbDp1N-39" edge="1"><mxGeometry width="160" relative="1" as="geometry"><mxPoint x="1240.8657718120808" y="-256" as="sourcePoint"/><mxPoint x="1221" y="-330" as="targetPoint"/></mxGeometry></mxCell><mxCell id="17" value="&lt;p style=&quot;margin:0px;margin-top:4px;text-align:center;&quot;&gt;&lt;b&gt;Team&lt;/b&gt;&lt;/p&gt;&lt;hr size=&quot;1&quot;&gt;&lt;p style=&quot;margin:0px;margin-left:4px;&quot;&gt;- Entities_: vector&amp;lt;Entities_&amp;gt;&lt;/p&gt;&lt;hr size=&quot;1&quot;&gt;&lt;p style=&quot;margin:0px;margin-left:4px;&quot;&gt;+ begin(): TeamInventoryIterator&lt;/p&gt;&lt;p style=&quot;margin:0px;margin-left:4px;&quot;&gt;+ end():&amp;nbsp;TeamInventoryIterator&lt;/p&gt;&lt;p style=&quot;margin:0px;margin-left:4px;&quot;&gt;+ add_unit(pos: Integer)&lt;/p&gt;&lt;p style=&quot;margin:0px;margin-left:4px;&quot;&gt;+ remove_unit(pos: Integer)&lt;/p&gt;&lt;p style=&quot;margin:0px;margin-left:4px;&quot;&gt;+ push_back(int pos);&lt;/p&gt;&lt;p style=&quot;margin:0px;margin-left:4px;&quot;&gt;+ getSize(): Integer;&lt;/p&gt;" style="verticalAlign=top;align=left;overflow=fill;fontSize=12;fontFamily=Helvetica;html=1;" parent="1" vertex="1"><mxGeometry x="562.5" y="-850" width="335" height="150" as="geometry"/></mxCell><mxCell id="26" value="" style="endArrow=diamondThin;endFill=0;endSize=24;html=1;rounded=0;exitX=0.5;exitY=0;exitDx=0;exitDy=0;entryX=0.5;entryY=1;entryDx=0;entryDy=0;" parent="1" source="zHwneukNKotvRWGbDp1N-39" target="17" edge="1"><mxGeometry width="160" relative="1" as="geometry"><mxPoint x="750" y="-620" as="sourcePoint"/><mxPoint x="910" y="-620" as="targetPoint"/></mxGeometry></mxCell><mxCell id="27" value="&lt;p style=&quot;margin:0px;margin-top:4px;text-align:center;&quot;&gt;&lt;b&gt;Level&lt;/b&gt;&lt;/p&gt;&lt;hr size=&quot;1&quot;&gt;&lt;p style=&quot;margin:0px;margin-left:4px;&quot;&gt;- Teams_: vector&amp;lt;Team&amp;gt;&lt;/p&gt;&lt;p style=&quot;margin:0px;margin-left:4px;&quot;&gt;- Board_: Matrix&amp;lt;Cell&amp;gt;&lt;/p&gt;&lt;hr size=&quot;1&quot;&gt;&lt;p style=&quot;margin:0px;margin-left:4px;&quot;&gt;+ place_unit(pos; pair&amp;lt;Integer,&amp;nbsp; Integer&amp;gt;, unit: Entity)&lt;/p&gt;&lt;p style=&quot;margin:0px;margin-left:4px;&quot;&gt;+ move_unit(pos: pair&amp;lt;Integer, Integer&amp;gt;, unit: Entity)&lt;/p&gt;&lt;p style=&quot;margin:0px;margin-left:4px;&quot;&gt;+ remove_unit(pos: pair&amp;lt;Integer, Integer&amp;gt;, iindex: Integer)&lt;/p&gt;&lt;p style=&quot;margin:0px;margin-left:4px;&quot;&gt;+ place_item(pos: pair&amp;lt;Integer, Integer&amp;gt;, new_item: Item)&lt;/p&gt;&lt;p style=&quot;margin:0px;margin-left:4px;&quot;&gt;+ remove_item(pos: pair&amp;lt;Integer, Integer&amp;gt;, index: Integer)&lt;/p&gt;&lt;p style=&quot;margin:0px;margin-left:4px;&quot;&gt;+ setCellType(pos: pair&amp;lt;Intger, Integer&amp;gt;, type: CellType)&lt;/p&gt;&lt;p style=&quot;margin:0px;margin-left:4px;&quot;&gt;+ resize(new_x: Integer, new_y: Integer)&lt;/p&gt;&lt;p style=&quot;margin:0px;margin-left:4px;&quot;&gt;+ find_enemy(my_team: Team)&lt;/p&gt;&lt;p style=&quot;margin:0px;margin-left:4px;&quot;&gt;+ find_container();&lt;/p&gt;&lt;p style=&quot;margin:0px;margin-left:4px;&quot;&gt;&lt;br&gt;&lt;/p&gt;&lt;p style=&quot;margin:0px;margin-left:4px;&quot;&gt;&lt;br&gt;&lt;/p&gt;&lt;p style=&quot;margin:0px;margin-left:4px;&quot;&gt;&lt;br&gt;&lt;/p&gt;&lt;p style=&quot;margin:0px;margin-left:4px;&quot;&gt;&lt;br&gt;&lt;/p&gt;" style="verticalAlign=top;align=left;overflow=fill;fontSize=12;fontFamily=Helvetica;html=1;" parent="1" vertex="1"><mxGeometry x="820" y="-1169" width="370" height="220" as="geometry"/></mxCell><mxCell id="28" value="" style="endArrow=diamondThin;endFill=1;endSize=24;html=1;rounded=0;exitX=0.5;exitY=0;exitDx=0;exitDy=0;entryX=0.25;entryY=1;entryDx=0;entryDy=0;" parent="1" source="17" target="27" edge="1"><mxGeometry width="160" relative="1" as="geometry"><mxPoint x="780" y="-960" as="sourcePoint"/><mxPoint x="940" y="-960" as="targetPoint"/></mxGeometry></mxCell><mxCell id="29" value="&lt;p style=&quot;margin:0px;margin-top:4px;text-align:center;&quot;&gt;&lt;b&gt;Cell&lt;/b&gt;&lt;/p&gt;&lt;hr size=&quot;1&quot;&gt;&lt;p style=&quot;margin:0px;margin-left:4px;&quot;&gt;- Type_: CellType&lt;/p&gt;&lt;p style=&quot;margin:0px;margin-left:4px;&quot;&gt;- ItemsGround_: Inventory&lt;/p&gt;&lt;p style=&quot;margin:0px;margin-left:4px;&quot;&gt;- ItemsContainer_: Inventory&lt;/p&gt;&lt;p style=&quot;margin:0px;margin-left:4px;&quot;&gt;- Entities_: vector&amp;lt;Entity&amp;gt;&lt;/p&gt;&lt;hr size=&quot;1&quot;&gt;&lt;p style=&quot;margin:0px;margin-left:4px;&quot;&gt;+ place_item_ground(new_item: Item)&lt;/p&gt;&lt;p style=&quot;margin:0px;margin-left:4px;&quot;&gt;+ place_item_container(new_item: Item)&lt;/p&gt;&lt;p style=&quot;margin:0px;margin-left:4px;&quot;&gt;+ remove_item_ground(index: Integer)&lt;/p&gt;&lt;p style=&quot;margin:0px;margin-left:4px;&quot;&gt;+ remove_item_container(index: Integer)&lt;/p&gt;&lt;p style=&quot;margin:0px;margin-left:4px;&quot;&gt;&lt;span style=&quot;background-color: initial;&quot;&gt;+ place_unit(unit: Entity)&lt;/span&gt;&lt;br&gt;&lt;/p&gt;&lt;p style=&quot;margin:0px;margin-left:4px;&quot;&gt;+ remove_unit(index: Integer)&lt;/p&gt;&lt;p style=&quot;margin:0px;margin-left:4px;&quot;&gt;&lt;br&gt;&lt;/p&gt;&lt;p style=&quot;margin:0px;margin-left:4px;&quot;&gt;&lt;br&gt;&lt;/p&gt;" style="verticalAlign=top;align=left;overflow=fill;fontSize=12;fontFamily=Helvetica;html=1;" parent="1" vertex="1"><mxGeometry x="940" y="-850" width="340" height="190" as="geometry"/></mxCell><mxCell id="30" value="" style="endArrow=diamondThin;endFill=1;endSize=24;html=1;rounded=0;entryX=0.5;entryY=1;entryDx=0;entryDy=0;" parent="1" target="27" edge="1"><mxGeometry width="160" relative="1" as="geometry"><mxPoint x="1110" y="-850" as="sourcePoint"/><mxPoint x="1342.5" y="-940" as="targetPoint"/></mxGeometry></mxCell><mxCell id="31" value="" style="endArrow=diamondThin;endFill=0;endSize=24;html=1;rounded=0;" parent="1" source="zHwneukNKotvRWGbDp1N-39" edge="1"><mxGeometry width="160" relative="1" as="geometry"><mxPoint x="740" y="-574" as="sourcePoint"/><mxPoint x="1040" y="-650" as="targetPoint"/></mxGeometry></mxCell><mxCell id="34" value="&lt;p style=&quot;margin:0px;margin-top:4px;text-align:center;&quot;&gt;&lt;b&gt;Game&lt;/b&gt;&lt;/p&gt;&lt;hr size=&quot;1&quot;&gt;&lt;p style=&quot;margin:0px;margin-left:4px;&quot;&gt;- ActiveTeam_: Team&lt;/p&gt;&lt;p style=&quot;margin:0px;margin-left:4px;&quot;&gt;- CurrentLevel_: Level&lt;/p&gt;&lt;hr size=&quot;1&quot;&gt;&lt;p style=&quot;margin:0px;margin-left:4px;&quot;&gt;+ load_game(file)&lt;/p&gt;&lt;p style=&quot;margin:0px;margin-left:4px;&quot;&gt;+ reset_time()&lt;/p&gt;&lt;p style=&quot;margin:0px;margin-left:4px;&quot;&gt;+ isRoundEnd(): bool&lt;/p&gt;&lt;p style=&quot;margin:0px;margin-left:4px;&quot;&gt;+ choose_player(index: Integer): Entity&lt;/p&gt;&lt;p style=&quot;margin:0px;margin-left:4px;&quot;&gt;+ next_team()&lt;/p&gt;" style="verticalAlign=top;align=left;overflow=fill;fontSize=12;fontFamily=Helvetica;html=1;" parent="1" vertex="1"><mxGeometry x="820" y="-1450" width="370" height="160" as="geometry"/></mxCell><mxCell id="35" value="" style="endArrow=diamondThin;endFill=1;endSize=24;html=1;rounded=0;exitX=0.5;exitY=0;exitDx=0;exitDy=0;entryX=0.5;entryY=1;entryDx=0;entryDy=0;" parent="1" source="27" target="34" edge="1"><mxGeometry width="160" relative="1" as="geometry"><mxPoint x="1007.5" y="-1169" as="sourcePoint"/><mxPoint x="1190" y="-1268" as="targetPoint"/></mxGeometry></mxCell><mxCell id="37" value="" style="endArrow=diamondThin;endFill=0;endSize=24;html=1;rounded=0;entryX=0.003;entryY=0.698;entryDx=0;entryDy=0;entryPerimeter=0;" parent="1" target="34" edge="1"><mxGeometry width="160" relative="1" as="geometry"><mxPoint x="730" y="-850" as="sourcePoint"/><mxPoint x="730" y="-1330" as="targetPoint"/><Array as="points"><mxPoint x="730" y="-1340"/></Array></mxGeometry></mxCell><mxCell id="38" value="" style="endArrow=diamondThin;endFill=0;endSize=24;html=1;rounded=0;exitX=1;exitY=0.5;exitDx=0;exitDy=0;entryX=1;entryY=0.75;entryDx=0;entryDy=0;" parent="1" source="zHwneukNKotvRWGbDp1N-39" target="27" edge="1"><mxGeometry width="160" relative="1" as="geometry"><mxPoint x="1060" y="-480" as="sourcePoint"/><mxPoint x="1190" y="-1010" as="targetPoint"/><Array as="points"><mxPoint x="1330" y="-460"/><mxPoint x="1330" y="-581"/><mxPoint x="1330" y="-741"/><mxPoint x="1330" y="-1000"/></Array></mxGeometry></mxCell><mxCell id="44" value="" style="endArrow=diamondThin;endFill=0;endSize=24;html=1;rounded=0;exitX=0;exitY=0.5;exitDx=0;exitDy=0;entryX=0;entryY=0.5;entryDx=0;entryDy=0;" parent="1" source="17" target="34" edge="1"><mxGeometry width="160" relative="1" as="geometry"><mxPoint x="562.5" y="-760" as="sourcePoint"/><mxPoint x="450" y="-1400" as="targetPoint"/><Array as="points"><mxPoint x="440" y="-775"/><mxPoint x="440" y="-1360"/></Array></mxGeometry></mxCell><mxCell id="47" value="&lt;p style=&quot;margin:0px;margin-top:4px;text-align:center;&quot;&gt;&lt;b&gt;TeamInventoryIterator&lt;/b&gt;&lt;/p&gt;&lt;hr size=&quot;1&quot;&gt;&lt;p style=&quot;margin:0px;margin-left:4px;&quot;&gt;- currentEntityIterator_:&lt;/p&gt;&lt;p style=&quot;margin:0px;margin-left:4px;&quot;&gt;- currentInventoryIterator_&lt;/p&gt;&lt;hr size=&quot;1&quot;&gt;&lt;p style=&quot;margin:0px;margin-left:4px;&quot;&gt;+ operator!=(other: TeamInventoryIterator): Boolean&lt;/p&gt;&lt;p style=&quot;margin:0px;margin-left:4px;&quot;&gt;operator*(): Item&lt;br&gt;&lt;/p&gt;&lt;p style=&quot;margin:0px;margin-left:4px;&quot;&gt;operator++(): TeamInventoryIterator&lt;/p&gt;&lt;p style=&quot;margin:0px;margin-left:4px;&quot;&gt;&lt;br&gt;&lt;/p&gt;" style="verticalAlign=top;align=left;overflow=fill;fontSize=12;fontFamily=Helvetica;html=1;" parent="1" vertex="1"><mxGeometry x="100" y="-760" width="290" height="155" as="geometry"/></mxCell><mxCell id="51" value="" style="endArrow=diamondThin;endFill=1;endSize=24;html=1;rounded=0;" parent="1" target="17" edge="1"><mxGeometry width="160" relative="1" as="geometry"><mxPoint x="390" y="-700" as="sourcePoint"/><mxPoint x="550" y="-700" as="targetPoint"/></mxGeometry></mxCell></root></mxGraphModel></diagram></mxfile>